<?xml version="1.0" encoding="UTF-8" standalone="no"?>
<!DOCTYPE svg PUBLIC "-//W3C//DTD SVG 1.1//EN"
 "http://www.w3.org/Graphics/SVG/1.1/DTD/svg11.dtd">
<!-- Generated by graphviz version 2.49.2 (20211016.1639)
 -->
<!-- Pages: 1 -->
<svg width="253pt" height="386pt"
 viewBox="0.00 0.00 253.25 386.37" xmlns="http://www.w3.org/2000/svg" xmlns:xlink="http://www.w3.org/1999/xlink">
<g id="graph0" class="graph" transform="scale(1 1) rotate(0) translate(4 382.37)">
<polygon fill="white" stroke="transparent" points="-4,4 -4,-382.37 249.25,-382.37 249.25,4 -4,4"/>
<!-- A -->
<g id="node1" class="node">
<title>A</title>
<polygon fill="lightgray" stroke="black" points="23,-378.37 0,-378.37 0,-360.37 23,-360.37 23,-378.37"/>
<text text-anchor="middle" x="11.5" y="-367.17" font-family="Times New Roman,serif" font-size="9.00">A</text>
</g>
<!-- A XOR B -->
<g id="node3" class="node">
<title>A XOR B</title>
<ellipse fill="lightblue" stroke="black" cx="95.5" cy="-37.48" rx="37.45" ry="37.45"/>
<text text-anchor="middle" x="95.5" y="-35.28" font-family="Times New Roman,serif" font-size="9.00">A XOR B</text>
</g>
<!-- A&#45;&gt;A XOR B -->
<g id="edge11" class="edge">
<title>A&#45;&gt;A XOR B</title>
<path fill="none" stroke="red" stroke-width="0.75" d="M10.13,-360.25C7.74,-344.91 3.35,-310.63 6.5,-281.95 15,-204.56 13.04,-182.17 44.5,-110.95 50,-98.5 57.79,-86.01 65.62,-74.98"/>
<polygon fill="red" stroke="red" stroke-width="0.75" points="68.49,-76.99 71.59,-66.86 62.85,-72.84 68.49,-76.99"/>
</g>
<!-- 595 -->
<g id="node6" class="node">
<title>595</title>
<ellipse fill="white" stroke="black" cx="36.5" cy="-303.16" rx="21.43" ry="21.43"/>
<text text-anchor="middle" x="36.5" y="-300.96" font-family="Times New Roman,serif" font-size="9.00">595</text>
</g>
<!-- A&#45;&gt;595 -->
<g id="edge3" class="edge">
<title>A&#45;&gt;595</title>
<path fill="none" stroke="green" stroke-width="0.8" d="M14.67,-360.24C17.39,-353.23 21.5,-342.69 25.42,-332.62"/>
<polygon fill="green" stroke="green" stroke-width="0.8" points="28.7,-333.84 29.07,-323.26 22.18,-331.3 28.7,-333.84"/>
</g>
<!-- B -->
<g id="node2" class="node">
<title>B</title>
<polygon fill="lightgray" stroke="black" points="141,-378.37 118,-378.37 118,-360.37 141,-360.37 141,-378.37"/>
<text text-anchor="middle" x="129.5" y="-367.17" font-family="Times New Roman,serif" font-size="9.00">B</text>
</g>
<!-- B&#45;&gt;A XOR B -->
<g id="edge5" class="edge">
<title>B&#45;&gt;A XOR B</title>
<path fill="none" stroke="red" stroke-width="0.45" d="M131.41,-360.32C133.39,-351.55 136.36,-337.06 137.5,-324.37 142.99,-263.51 140.1,-153.75 129.5,-110.95 126.89,-100.42 122.71,-89.58 118.17,-79.58"/>
<polygon fill="red" stroke="red" stroke-width="0.45" points="121.2,-77.82 113.73,-70.31 114.89,-80.84 121.2,-77.82"/>
</g>
<!-- 1952 -->
<g id="node4" class="node">
<title>1952</title>
<ellipse fill="white" stroke="black" cx="220.5" cy="-221.2" rx="25" ry="25"/>
<text text-anchor="middle" x="220.5" y="-219" font-family="Times New Roman,serif" font-size="9.00">1952</text>
</g>
<!-- B&#45;&gt;1952 -->
<g id="edge9" class="edge">
<title>B&#45;&gt;1952</title>
<path fill="none" stroke="green" stroke-width="0.32" d="M141.34,-360.97C152.98,-353.14 170.56,-339.81 181.5,-324.37 196.22,-303.61 206.22,-276.57 212.4,-255.53"/>
<polygon fill="green" stroke="green" stroke-width="0.32" points="215.82,-256.3 215.14,-245.73 209.08,-254.42 215.82,-256.3"/>
</g>
<!-- 1074 -->
<g id="node5" class="node">
<title>1074</title>
<ellipse fill="white" stroke="black" cx="76.5" cy="-221.2" rx="25" ry="25"/>
<text text-anchor="middle" x="76.5" y="-219" font-family="Times New Roman,serif" font-size="9.00">1074</text>
</g>
<!-- B&#45;&gt;1074 -->
<g id="edge4" class="edge">
<title>B&#45;&gt;1074</title>
<path fill="none" stroke="green" stroke-width="0.61" d="M126.5,-360.1C119.24,-340.09 100.44,-288.24 88.08,-254.13"/>
<polygon fill="green" stroke="green" stroke-width="0.61" points="91.32,-252.8 84.62,-244.59 84.74,-255.19 91.32,-252.8"/>
</g>
<!-- B&#45;&gt;595 -->
<g id="edge1" class="edge">
<title>B&#45;&gt;595</title>
<path fill="none" stroke="green" stroke-width="1.12" d="M117.72,-360.24C103.78,-350.61 80.15,-334.3 61.97,-321.74"/>
<polygon fill="green" stroke="green" stroke-width="1.12" points="63.76,-318.73 53.54,-315.93 59.78,-324.49 63.76,-318.73"/>
</g>
<!-- 1877 -->
<g id="node7" class="node">
<title>1877</title>
<ellipse fill="white" stroke="black" cx="95.5" cy="-135.7" rx="25" ry="25"/>
<text text-anchor="middle" x="95.5" y="-133.5" font-family="Times New Roman,serif" font-size="9.00">1877</text>
</g>
<!-- B&#45;&gt;1877 -->
<g id="edge6" class="edge">
<title>B&#45;&gt;1877</title>
<path fill="none" stroke="red" stroke-width="0.11" d="M128.99,-360.09C127.35,-335.17 121.72,-258.81 110.5,-196.45 108.92,-187.67 106.78,-178.28 104.61,-169.59"/>
<polygon fill="red" stroke="red" stroke-width="0.11" points="107.97,-168.62 102.08,-159.81 101.19,-170.37 107.97,-168.62"/>
</g>
<!-- 1952&#45;&gt;A XOR B -->
<g id="edge10" class="edge">
<title>1952&#45;&gt;A XOR B</title>
<path fill="none" stroke="green" stroke-width="0.16" d="M215.91,-196.8C210.51,-173.48 199.87,-137.42 181.5,-110.95 169.18,-93.2 151.43,-77.24 135.25,-64.85"/>
<polygon fill="green" stroke="green" stroke-width="0.16" points="137.09,-61.86 126.97,-58.71 132.92,-67.48 137.09,-61.86"/>
</g>
<!-- 1074&#45;&gt;1877 -->
<g id="edge8" class="edge">
<title>1074&#45;&gt;1877</title>
<path fill="none" stroke="red" stroke-width="0.6" d="M81.79,-196.94C83.69,-188.6 85.87,-179.02 87.93,-169.99"/>
<polygon fill="red" stroke="red" stroke-width="0.6" points="91.36,-170.65 90.17,-160.13 84.54,-169.1 91.36,-170.65"/>
</g>
<!-- 595&#45;&gt;A XOR B -->
<g id="edge2" class="edge">
<title>595&#45;&gt;A XOR B</title>
<path fill="none" stroke="green" stroke-width="1.54" d="M36.68,-281.8C37.1,-260.44 38.41,-225.95 42.5,-196.45 47.84,-157.89 48.94,-147.8 61.5,-110.95 64.97,-100.79 69.44,-90.15 74,-80.26"/>
<polygon fill="green" stroke="green" stroke-width="1.54" points="77.25,-81.57 78.36,-71.04 70.92,-78.58 77.25,-81.57"/>
</g>
<!-- 595&#45;&gt;1074 -->
<g id="edge12" class="edge">
<title>595&#45;&gt;1074</title>
<path fill="none" stroke="green" stroke-width="0.37" d="M45.78,-283.62C50.34,-274.5 55.95,-263.28 61.13,-252.93"/>
<polygon fill="green" stroke="green" stroke-width="0.37" points="64.37,-254.27 65.71,-243.76 58.11,-251.14 64.37,-254.27"/>
</g>
<!-- 1877&#45;&gt;A XOR B -->
<g id="edge7" class="edge">
<title>1877&#45;&gt;A XOR B</title>
<path fill="none" stroke="green" stroke-width="0.16" stroke-dasharray="1,5" d="M95.5,-110.92C95.5,-103.07 95.5,-94.06 95.5,-85.11"/>
<polygon fill="green" stroke="green" stroke-width="0.16" points="99,-85.1 95.5,-75.1 92,-85.1 99,-85.1"/>
</g>
</g>
</svg>
